<?xml version="1.0" encoding="UTF-8"?>
<svg id="Camada_1" data-name="Camada 1" xmlns="http://www.w3.org/2000/svg" viewBox="0 0 1080 263.32">
  <defs>
    <style>
      .cls-1 {
        fill: #3d6835;
      }
    </style>
  </defs>
  <path class="cls-1" d="M296.37,101.48h15.44c10.03,0,19.64-6.17,19.64-23.6,0-15.88-5.62-26.04-22.73-26.04h-12.35v49.63ZM279.06,37.3h33.98c20.4,0,35.73,12.91,35.73,38.94,0,22.83-11.69,39.81-35.73,39.81h-33.98V37.3Z"/>
  <path class="cls-1" d="M371.82,76.34c0,13.12,10.92,24.05,24.04,24.05s23.83-10.93,23.83-24.05-10.7-24.16-23.83-24.16-24.04,11.04-24.04,24.16M395.86,117.04c-22.5,0-40.7-18.2-40.7-40.7s18.2-40.81,40.7-40.81,40.81,18.2,40.81,40.81-18.41,40.7-40.81,40.7"/>
  <polygon class="cls-1" points="448.47 37.3 470.97 37.3 489.17 72.04 507.05 37.3 529.88 37.3 529.88 116.05 513.65 116.05 513.65 60.35 513.44 60.35 495.9 96.19 482.56 96.19 465.13 60.9 464.91 60.9 464.91 116.05 448.47 116.05 448.47 37.3"/>
  <path class="cls-1" d="M615.8,116.27c-22.06,0-39.92-17.87-39.92-39.93s17.86-39.92,39.92-39.92c15.11,0,27.91,8.38,34.64,20.41-6.73,3.53-7.29,3.87-14.78,7.5-3.87-6.73-11.36-11.36-19.86-11.36-12.9,0-23.39,10.59-23.39,23.38s10.48,23.39,23.39,23.39c8.82,0,16.54-4.74,20.52-12.24,7.49,3.86,7.71,4.3,14.78,7.5-6.73,12.68-19.75,21.28-35.3,21.28"/>
  <path class="cls-1" d="M698.96,52.18l-13.24,30.45h26.14l-12.79-30.45h-.11ZM654.29,116.05l35.73-78.64h17.43l35.18,78.64h-16.75l-7.73-17.43h-39.82l-8.27,17.43h-15.77Z"/>
  <path class="cls-1" d="M762.6,92.67c1.76,10.36,11.02,11.81,17.43,11.81,6.06,0,15.33-1.77,15.33-9.82,0-16.77-46.88-5.96-46.88-35.42,0-16.21,15.22-23.82,29.45-23.82,16.43,0,31.54,7.17,31.54,25.37l-16.76-2.42c-2.1-9.15-10.15-9.49-15.55-9.49s-11.9,2.32-11.9,8.94c0,5.84,3.74,7.17,23.49,11.91,5.84,1.43,23.38,5.07,23.38,22.94,0,14.45-11.25,25.26-32.75,25.26-17.66,0-33.54-8.61-33.54-28.01l16.77,2.76Z"/>
  <polygon class="cls-1" points="837.16 84.61 837.16 101.38 881.61 101.38 881.61 115.94 820.39 115.94 820.39 36.97 877.86 36.97 877.86 51.53 837.16 51.53 837.16 69.28 873.12 69.28 873.12 84.61 837.16 84.61"/>
  <path class="cls-1" d="M911.28,50.75v23.72h13.45c8.28,0,15.12-1.89,15.12-11.92s-6.84-11.81-15.12-11.81h-13.45ZM938.75,86.93l22.06,29.24h-21.18l-19.85-28.35h-8.49v28.35h-17.42V37.3h35.51c19.85,0,27.46,12.47,27.46,25.26,0,10.69-5.62,21.51-18.76,24.37h.67Z"/>
  <path class="cls-1" d="M984.52,76.34c0,13.12,10.92,24.05,24.05,24.05s23.82-10.93,23.82-24.05-10.7-24.16-23.82-24.16-24.05,11.04-24.05,24.16M1008.56,117.04c-22.5,0-40.7-18.2-40.7-40.7s18.2-40.81,40.7-40.81,40.81,18.2,40.81,40.81-18.42,40.7-40.81,40.7"/>
  <path class="cls-1" d="M673.34,156.94c0,5.48-4.44,9.92-9.92,9.92s-9.91-4.44-9.91-9.92,4.44-9.92,9.91-9.92,9.92,4.44,9.92,9.92"/>
  <rect class="cls-1" x="279.06" y="154.97" width="353.54" height="3.93"/>
  <rect class="cls-1" x="694.24" y="154.97" width="354.9" height="3.93"/>
  <path class="cls-1" d="M136.93,183.15c0-5.17-4.19-9.35-9.35-9.35s-9.35,4.18-9.35,9.35c0,3.65,2.1,6.81,5.17,8.35l-2.8,21.12h13.96l-2.8-21.12c3.06-1.54,5.17-4.7,5.17-8.35"/>
  <path class="cls-1" d="M138.07,56.32c-2.9-.36-6.54-.58-10.48-.58s-7.78.23-10.71.6v-5.05c0-5.85,4.75-10.6,10.59-10.6s10.61,4.75,10.61,10.6v5.03ZM133.67,68.22l-5.38,5.38c-.39.4-1.05.4-1.45,0l-5.38-5.38c-4.67-4.68,1.43-10.78,6.11-6.11,4.75-4.75,10.86,1.35,6.11,6.11M144.58,58.22c-.27-.48-1.33-.93-2.95-1.3v-5.99c0-7.83-6.34-14.16-14.17-14.16s-14.15,6.33-14.15,14.16v6.04c-1.5.36-2.47.79-2.73,1.25h-.07v18.14c0,1.5,7.65,2.72,17.08,2.72s17.07-1.23,17.07-2.72v-18.14h-.07Z"/>
  <path class="cls-1" d="M58.23,145.91c1.77,0,3.32-.15,4.65-.46,1.32-.3,2.42-.84,3.29-1.61.87-.77,1.52-1.81,1.95-3.09.44-1.28.66-2.91.66-4.88s-.23-3.59-.66-4.88c-.44-1.29-1.08-2.32-1.95-3.09-.87-.77-1.97-1.31-3.29-1.62-1.33-.3-2.88-.45-4.65-.45h-8.8v20.08h8.8ZM60.49,120.95c2.08,0,4.01.31,5.82.91,1.79.6,3.35,1.52,4.67,2.75,1.32,1.22,2.36,2.78,3.12,4.65.76,1.87,1.14,4.08,1.14,6.61s-.38,4.74-1.14,6.61c-.76,1.87-1.8,3.42-3.12,4.65-1.32,1.22-2.89,2.15-4.67,2.75-1.81.6-3.74.91-5.82.91h-18.83v-1.02c.87,0,1.31-.35,1.31-1.02v-25.76c0-.68-.44-1.02-1.31-1.02v-1.02h18.83Z"/>
  <path class="cls-1" d="M214.61,146.7l-.31-.02-.31-.03c-.23,0-.77.23-1.62.68-.85.46-1.93.97-3.23,1.54-1.31.56-2.79,1.06-4.46,1.48-1.66.41-3.4.62-5.21.62-2.39,0-4.67-.31-6.87-.91-2.19-.6-4.13-1.54-5.81-2.8-1.68-1.27-3.01-2.84-4-4.74-.99-1.89-1.48-4.1-1.48-6.63s.49-4.7,1.48-6.61c.98-1.91,2.31-3.51,4-4.8,1.68-1.28,3.62-2.25,5.81-2.89,2.19-.64,4.48-.96,6.87-.96,1.93,0,3.67.15,5.25.45,1.56.31,2.93.62,4.11.97,1.17.34,2.1.66,2.78.96.68.31,1.1.46,1.25.46l.48-.29.31-.45.85.68-4.42,6.87-.57-.39-.02-.34-.09-.4c-.07-.41-.45-.84-1.13-1.27-.68-.44-1.53-.82-2.53-1.16-1-.35-2.05-.63-3.17-.85-1.11-.23-2.14-.34-3.09-.34-1.59,0-3.11.23-4.57.68-1.46.46-2.72,1.12-3.8,1.99-1.08.87-1.94,1.93-2.59,3.2-.64,1.27-.96,2.72-.96,4.34s.32,3.07.96,4.34c.64,1.27,1.51,2.34,2.59,3.21,1.08.86,2.34,1.53,3.8,1.98,1.46.46,2.98.68,4.57.68,1.21,0,2.47-.14,3.8-.42,1.32-.29,2.54-.64,3.63-1.08,1.1-.44,2.01-.93,2.75-1.47.74-.55,1.1-1.06,1.1-1.56,0-.26-.07-.48-.23-.68l.8-.45,3.74,6.01-.45.45Z"/>
  <path class="cls-1" d="M187.75,210.25h-7.61c-.57,0-1.03-.46-1.03-1.02v-7.61c0-6.62,8.64-6.62,8.64,0,6.72,0,6.72,8.63,0,8.63M85.61,63.29c-.02.64-.28.91-.9.74-1.57-.43-2.75.27-3.37,1.57-.59,1.25-.36,2.58.74,3.59.69.63.4,1.05-.21,1.5-3.1,2.32-6.53,2.71-10.16,1.62-2.75-.83-5.06-2.4-7.03-4.49-.33-.35-.62-.64-.54-1.24.4-2.88.36-5.69-1.63-8.12-.49-.59-.39-.94.44-1.29,2.82-1.19,4.82-3.38,6.45-5.9.77-1.19.36-3.13-.68-3.97-1.13-.89-2.87-.92-3.88-.04-1.42,1.23-1.69,2.57-.65,4.09.6.87.34,1.31-.34,1.92-.89.81-2.06,1.61-3.05,1.44-.7-.11-.76-1.69-.91-2.7-.54-3.63,1.02-6.73,4.26-8.42,4.22-2.2,8.53-2.45,12.99-.8,1.84.69,2.49,2.33,3.15,3.81,1.96,4.37,1.62,8.73-.64,12.93-.37.69-.71,1.31-1.73.49-1.42-1.14-3.77-.66-4.99.78-1.23,1.47-1.2,3.77.09,5.18,1.24,1.37,3.51,1.59,5,.46,3.5-2.63,5.83-6.03,6.8-10.32.06-.28.13-.56.22-.85.02-.08.1-.15.29-.4.48,2.93.35,5.68.3,8.41M83.32,77.98c-.14.69-.44,1.01-1.29.97-4.67-.13-8.06,3.26-7.91,7.99.02.87-.31,1.15-.96,1.3-1.53.35-3.08.66-4.88,1.04.91-1.72,1.93-3.13,2.37-4.84.73-2.84.54-5.62-.25-8.41-.07-.26-.36-.48-.1-.77.28-.31.51,0,.77.07,3.54,1,7.01,1.01,10.44-.52.89-.39,1.5-1.27,2.75-1.42-.32,1.59-.62,3.09-.93,4.59M67.83,82.09c-.23,1.83-1.1,3.38-2.05,4.91-.52.83-1.02.54-1.52.02-.94-.98-2.09-1.17-3.34-.8-1.37.39-2.06,1.68-1.76,3.36.1.64.06,1.02-.65,1.07-2.93.19-5.85.2-8.76-.23-.12,0-.23-.14-.56-.36,5.29-.57,9.28-3.03,12.42-6.89,1.38-1.68,1.18-3.6-.16-5.13-1.4-1.6-3.64-1.51-5.12-.47-1.56,1.11-2.08,3.28-.96,5.04.79,1.23-.07,1.64-.76,2.01-3.7,1.98-7.58,2.42-11.59,1.02-.85-.29-1.68-.73-2.51-1.13-3.42-1.63-3.67-4.75-3.69-7.87-.02-2.78.77-5.4,2.36-7.77,2.08-3.12,6-4.53,9.56-3.37.85.28,1.03.66.65,1.46-.37.81-.85,1.51-1.42,2.18-.56.66-.93.73-1.63.13-1.17-.99-2.91-.72-4.03.48-1.02,1.09-1.04,3.01-.05,4.11,1.01,1.11,2.92,1.35,4.1.54,2.52-1.72,4.69-3.76,5.85-6.67.24-.6.54-.63.97-.26,2.38,2.06,5.2,2.13,8.1,1.76.5-.06.91-.18,1.34.23,3.67,3.41,5.81,7.44,5.18,12.6M206.09,204.89c-7.33-7.17-14.63-14.38-22.02-21.5-1.37-1.31-2.22-2.44-.98-4.24.15-.21.16-.56.16-.84.03-1.08-.64-1.65-1.73-1.53-.52.06-1.03.11-1.47.42-.79.56-1.89.33-2.55-.35-3.18-3.27-6.46-6.45-9.67-9.67-5.16-5.17-10.73-10.01-15.04-15.91-2.47-3.38-5.44-6.28-8.12-9.41-6.32-7.38-13.57-13.93-21.18-20-3.84-3.07-7.71-6.05-11.11-9.61-.64-.68-.98-1.31-1.01-2.26-.07-2.86-2.04-5.26-4.84-5.42-1.87-.11-3.01-1-4.14-2.22-.7-.77-1.43-1.51-2.21-2.2-.56-.49-.74-1.29-.41-1.96.52-1.01,1.27-2.21.22-3.2-.98-.93-2.18-.25-3.09.31-1.17.71-1.73.04-2.28-.7-.56-.77.23-1.33.45-1.97.3-.88.68-1.84-.06-2.59-.64-.65-1.51-.44-2.31-.1l-.55.18c-1.85.69-3.39-.48-3.08-2.43.21-1.33.09-2.6-.35-3.84-.18-.52-.23-1.06-.08-1.58,1.06-3.85,1.85-7.77,2.42-11.72,1.01-6.97,1.44-13.93-.5-20.82-1.72-6.12-5.46-10.56-11.45-12.81-6.15-2.31-12.23-1.89-18,1.31-4.03,2.24-6.61,5.58-7.39,10.23-.16.94-.18,1.88-.13,2.81.15,2.72.92,5.36,2.1,7.81l.14.29c.69,1.08,1.26,2.26,1.89,3.39,0,0-.84-.48-2.13-1.08-.44-.19-.89-.38-1.33-.56l-.36-.2c-1.49-.63-3.25-1.26-4.96-1.62l-.15-.02c-1.05-.23-2.1-.47-3.16-.39-6.67.52-10.67,4.06-13.16,9.46-3.51,7.62-1.97,16.99,3.87,22.69,3.76,3.66,8.49,5.13,13.54,5.68,8.51.93,16.79-.53,25.02-2.53,1.27-.31,2.51-1.1,3.8-.72,1.55.48,3.22.61,4.81.32,1.35-.24,2.59,1.49,2.1,2.72-.43,1.08-1.38,2.24-.22,3.31,1.08,1.01,2.2.15,3.2-.35.73-.36,1.19-.31,1.78.28.6.59.61,1.06.27,1.77-.49,1.01-1.34,2.13-.3,3.2,1.11,1.14,2.27.23,3.31-.29.97-.48,1.43-.11,2.22.89.83,1.06,1.81,1.98,2.87,2.81.75.6,1.02,1.15,1.03,2.02.02,3.5,2.3,5.83,5.82,5.87.89,0,1.42.31,1.98.88,3.13,3.13,6.08,6.37,8.84,9.85,5.85,7.37,12.38,14.18,19.24,20.61,3.38,3.17,6.75,6.41,10.5,9.11,3.15,2.27,6.09,4.69,8.83,7.41,5.94,5.89,11.88,11.78,17.85,17.63.85.83,1.18,1.48.42,2.6-.53.77-.81,1.89-.04,2.72.68.73,1.6.44,2.43.06.27-.11.56-.18.81-.33.69-.43,1.25-.34,1.76.31.3.38.64.74,1.03,1.02,1.18.85,1.02,1.51,0,2.48-4.96,4.88-9.82,9.85-14.77,14.74-.83.82-.85,1.36.03,2.1.7.59,1.36,1.24,1.97,1.93.49.56,1.31.56,1.81.02.99-1.09,2.14-1.98,3.5-2.56.77-.32,1.6-.48,2.28.22.62.65.52,1.4.22,2.17-.48,1.23-1.07,2.44-2.13,3.26-1.45,1.12-.86,1.9.59,3.03,1.02.78,1.93,1.7,2.75,2.7.98,1.2,1.58,1.35,2.51.35,1.13-1.2,2.39-2.29,4.12-2.53,1.16-.17,2.1.88,1.81,2.01-.23.93-.6,1.85-1.3,2.6-2.27,2.51-2.23,2.49.25,4.88.77.75,1.25.62,1.9-.08,3.44-3.64,7.2-7,10.27-10.99,1.19-1.55,2.79-2.68,4.37-3.83.58-.42.98-1.44,1.94-.65.6.5,1.02,1.6,1.9,1.35.71-.22,1.26-1.02,1.87-1.56.32-.31.61-.63.93-.94,1.61-1.65,1.6-2.12,0-3.69"/>
  <path class="cls-1" d="M68.98,201.62c0-6.62,8.64-6.62,8.64,0v7.61c0,.56-.47,1.03-1.03,1.03h-7.61c-6.72,0-6.72-8.64,0-8.64M171.41,54.88c.19.26.27.32.29.4.08.27.15.56.23.84.96,4.29,3.3,7.7,6.79,10.33,1.49,1.13,3.76.9,5-.46,1.28-1.42,1.32-3.72.09-5.18-1.22-1.44-3.58-1.93-4.99-.78-1.02.82-1.36.19-1.73-.5-2.26-4.2-2.6-8.57-.64-12.93.66-1.48,1.31-3.13,3.14-3.8,4.47-1.66,8.78-1.41,13,.8,3.23,1.68,4.79,4.78,4.25,8.42-.15,1.01-.2,2.59-.91,2.7-.99.17-2.14-.64-3.05-1.44-.67-.6-.93-1.06-.33-1.93,1.04-1.51.77-2.85-.65-4.08-1.01-.88-2.76-.86-3.88.04-1.05.84-1.47,2.77-.69,3.96,1.63,2.51,3.62,4.71,6.45,5.9.84.35.93.71.44,1.3-2,2.42-2.03,5.23-1.63,8.12.08.6-.21.89-.54,1.24-1.97,2.09-4.28,3.66-7.03,4.48-3.63,1.09-7.06.7-10.16-1.61-.61-.45-.91-.88-.22-1.5,1.11-1.01,1.34-2.34.75-3.59-.62-1.31-1.8-2-3.38-1.56-.61.16-.88-.11-.89-.74-.06-2.74-.18-5.48.3-8.41M172.48,73.39c1.25.14,1.85,1.02,2.75,1.43,3.42,1.52,6.9,1.51,10.44.51.26-.07.48-.39.77-.07.26.3-.03.52-.1.78-.79,2.78-.98,5.57-.25,8.41.44,1.7,1.46,3.11,2.36,4.84-1.79-.38-3.34-.68-4.88-1.04-.64-.15-.98-.42-.95-1.29.14-4.73-3.23-8.13-7.91-7.99-.85.02-1.14-.28-1.28-.98-.31-1.5-.61-3-.93-4.59M194.08,69.48c.44-.39.84-.28,1.34-.23,2.89.37,5.71.3,8.1-1.77.43-.37.73-.34.97.27,1.15,2.91,3.33,4.95,5.85,6.66,1.18.81,3.09.57,4.1-.54.99-1.1.97-3.02-.05-4.1-1.13-1.2-2.87-1.48-4.03-.48-.7.6-1.07.53-1.63-.13-.57-.68-1.05-1.39-1.42-2.18-.38-.81-.2-1.18.65-1.47,3.56-1.15,7.48.25,9.56,3.38,1.59,2.37,2.38,4.98,2.35,7.77-.02,3.12-.26,6.23-3.68,7.87-.83.39-1.65.83-2.51,1.13-4.01,1.39-7.89.95-11.6-1.03-.68-.37-1.54-.77-.75-2,1.12-1.77.6-3.93-.96-5.04-1.47-1.06-3.72-1.14-5.12.47-1.34,1.51-1.54,3.44-.17,5.12,3.16,3.86,7.13,6.32,12.43,6.9-.33.22-.44.35-.56.36-2.91.43-5.83.42-8.75.22-.72-.05-.77-.43-.64-1.07.3-1.68-.4-2.97-1.76-3.36-1.25-.36-2.39-.18-3.34.8-.5.52-1,.81-1.52-.02-.94-1.52-1.82-3.07-2.05-4.9-.63-5.17,1.51-9.2,5.18-12.61M50.63,208.58c.31.31.6.64.93.93.6.56,1.15,1.36,1.87,1.57.89.26,1.29-.84,1.9-1.34.96-.8,1.36.23,1.94.64,1.57,1.14,3.18,2.29,4.37,3.84,3.06,4,6.82,7.35,10.26,10.99.66.7,1.14.82,1.9.08,2.49-2.39,2.53-2.38.25-4.88-.69-.76-1.06-1.68-1.3-2.62-.29-1.13.65-2.18,1.81-2.01,1.73.25,3,1.34,4.12,2.53.94,1,1.55.85,2.52-.35.81-1,1.72-1.91,2.74-2.7,1.46-1.13,2.05-1.9.6-3.03-1.06-.81-1.64-2.02-2.13-3.26-.31-.76-.41-1.51.22-2.16.68-.72,1.52-.55,2.28-.22,1.35.57,2.51,1.47,3.5,2.55.5.56,1.31.55,1.81,0,.6-.7,1.27-1.35,1.97-1.94.87-.73.86-1.27.02-2.1-4.95-4.89-9.81-9.86-14.77-14.73-1-.98-1.16-1.64,0-2.49.39-.28.74-.64,1.04-1.02.52-.65,1.07-.73,1.76-.31.24.15.54.22.81.34.83.36,1.76.67,2.43-.07.77-.82.48-1.93-.04-2.71-.77-1.13-.44-1.78.42-2.61,5.97-5.85,11.91-11.74,17.85-17.63,2.74-2.72,5.68-5.13,8.83-7.41,3.74-2.7,7.12-5.94,10.5-9.11,6.87-6.43,13.39-13.24,19.24-20.61,2.76-3.47,5.71-6.71,8.84-9.84.56-.57,1.1-.87,1.97-.89,3.53-.05,5.8-2.37,5.83-5.87,0-.88.28-1.43,1.03-2.02,1.06-.84,2.04-1.77,2.87-2.82.79-1,1.25-1.36,2.22-.88,1.03.51,2.2,1.43,3.31.28,1.04-1.07.19-2.19-.3-3.19-.35-.73-.33-1.18.27-1.78.59-.59,1.06-.64,1.77-.27,1.01.51,2.13,1.35,3.2.35,1.17-1.08.22-2.24-.21-3.31-.48-1.24.76-2.97,2.1-2.72,1.6.28,3.26.14,4.81-.32,1.29-.39,2.54.4,3.8.71,8.23,2.01,16.52,3.47,25.03,2.53,5.06-.55,9.78-2.01,13.54-5.68,5.84-5.7,7.39-15.05,3.87-22.69-2.49-5.39-6.49-8.95-13.17-9.46-1.06-.08-2.11.16-3.15.39l-.15.02c-1.71.35-3.47.99-4.96,1.62l-.36.19c-.44.18-.89.36-1.34.56-1.28.61-2.12,1.08-2.12,1.08.64-1.13,1.19-2.31,1.89-3.39l.14-.28c1.19-2.45,1.96-5.09,2.1-7.81.06-.94.04-1.88-.12-2.82-.78-4.64-3.36-7.98-7.39-10.23-5.77-3.21-11.85-3.63-18-1.31-5.99,2.25-9.72,6.7-11.44,12.82-1.94,6.88-1.51,13.85-.5,20.82.57,3.95,1.35,7.87,2.43,11.72.14.52.09,1.07-.1,1.58-.44,1.24-.56,2.52-.34,3.84.31,1.96-1.22,3.13-3.08,2.43l-.55-.19c-.8-.34-1.68-.55-2.32.1-.74.76-.35,1.72-.06,2.6.23.64,1.02,1.21.45,1.96-.55.75-1.12,1.43-2.28.71-.91-.56-2.12-1.24-3.09-.31-1.05.99-.29,2.19.22,3.21.34.66.15,1.46-.4,1.95-.77.69-1.5,1.43-2.21,2.2-1.13,1.22-2.27,2.1-4.15,2.22-2.8.17-4.77,2.56-4.84,5.42-.02.96-.36,1.59-1.01,2.26-3.39,3.56-7.27,6.55-11.11,9.61-7.6,6.08-14.85,12.62-21.18,20.01-2.68,3.13-5.65,6.03-8.12,9.4-4.31,5.9-9.88,10.74-15.04,15.91-3.22,3.23-6.49,6.4-9.67,9.67-.67.69-1.76.92-2.55.36-.44-.31-.94-.36-1.47-.42-1.1-.12-1.76.45-1.74,1.52.02.28.02.63.16.85,1.26,1.79.41,2.92-.97,4.24-7.39,7.11-14.69,14.33-22.02,21.49-1.61,1.57-1.62,2.05,0,3.69"/>
  <path class="cls-1" d="M286.75,221.81h10.65c1.98,0,3.4-.27,4.27-.82,1-.63,1.49-1.67,1.49-3.09s-.49-2.45-1.49-3.09c-.85-.54-2.27-.81-4.27-.81h-10.65v7.83ZM286.75,209.25h11.01c1.67,0,2.84-.25,3.5-.74.74-.56,1.11-1.43,1.11-2.61s-.35-2.06-1.05-2.58c-.7-.51-1.89-.77-3.56-.77h-11.01v6.7ZM304.73,211.5c3.23,1.23,4.84,3.48,4.84,6.78,0,2.63-.94,4.68-2.82,6.17-.96.73-2.06,1.28-3.32,1.6-1.26.34-2.81.49-4.66.49h-19.64v-.66c.5-.15.85-.32,1.05-.55.2-.23.29-.56.29-1v-24.31c0-.44-.09-.77-.29-1-.2-.23-.55-.4-1.05-.54v-.68h19.45c1.87,0,3.37.15,4.5.42,1.14.28,2.14.76,2.99,1.43,1.69,1.33,2.55,3.26,2.55,5.77,0,2.8-1.3,4.82-3.89,6.06"/>
  <path class="cls-1" d="M320.8,224.34v-24.34c0-.42-.1-.74-.3-.97-.19-.23-.55-.41-1.05-.55v-.68h8.96v.68c-.5.13-.85.31-1.05.53-.2.24-.29.56-.29.98v24.34c0,.44.1.77.3,1s.56.41,1.04.54v.67h-8.96v-.67c.5-.14.85-.33,1.05-.55.2-.23.3-.56.3-.99"/>
  <path class="cls-1" d="M365.92,200.25l-3.43,6.77-.59-.34.02-.34c0-.48-.41-.99-1.22-1.54-2.5-1.73-5.43-2.61-8.8-2.61-1.48,0-2.8.19-3.93.55-.83.28-1.5.7-2.01,1.27-.52.56-.77,1.17-.77,1.83,0,1.08.65,1.81,1.96,2.21.68.19,2.12.41,4.34.63l3.3.34c1.97.21,3.55.5,4.77.86,1.21.37,2.29.88,3.23,1.54.96.68,1.71,1.59,2.26,2.71.56,1.13.83,2.32.83,3.6,0,2.01-.65,3.81-1.96,5.38-1.18,1.43-3.01,2.49-5.5,3.17-1.85.52-3.84.78-5.96.78-3.8,0-7.56-.92-11.27-2.74-.78-.36-1.26-.55-1.4-.55-.19,0-.48.16-.87.46l-.61-.31,3.12-7.06.61.3v.27c0,.64.31,1.21.9,1.75.91.81,2.32,1.51,4.23,2.1,1.91.59,3.72.89,5.43.89,1.87,0,3.46-.32,4.78-.95.73-.35,1.31-.81,1.75-1.39.44-.59.65-1.18.65-1.82,0-.95-.52-1.63-1.54-2.03-.71-.28-2.16-.55-4.34-.78l-3.25-.34c-2.17-.22-3.71-.44-4.6-.64-.9-.21-1.8-.54-2.69-.98-1.28-.64-2.29-1.58-3.01-2.84-.66-1.14-.99-2.44-.99-3.92,0-2.43.84-4.44,2.51-6.03,2.18-2.09,5.47-3.13,9.86-3.13,1.83,0,3.55.19,5.13.56,1.59.38,3.57,1.06,5.95,2.06.81.32,1.31.48,1.49.48.29,0,.64-.16,1.03-.48l.59.31Z"/>
  <path class="cls-1" d="M403.65,216.68l4.01,5.99-.56.38c-.39-.36-.71-.55-.96-.55s-.97.35-2.14,1.02c-2.41,1.39-4.44,2.34-6.09,2.81-1.65.49-3.61.73-5.88.73-4.53,0-8.25-1.08-11.16-3.22-1.71-1.25-3.05-2.8-4.04-4.67-1.14-2.11-1.71-4.45-1.71-7,0-3.48,1.02-6.5,3.05-9.07,3.06-3.87,7.69-5.79,13.88-5.79,2.27,0,4.22.24,5.85.72,1.63.48,3.67,1.42,6.1,2.82,1.17.66,1.88.98,2.14.98s.57-.18.96-.55l.56.39-4.01,6-.56-.38.04-.56c0-.4-.18-.79-.52-1.14-.35-.35-.98-.79-1.88-1.29-2.48-1.39-5.12-2.1-7.9-2.1-3.28,0-5.9.82-7.85,2.46-2.3,1.93-3.45,4.43-3.45,7.53s1.14,5.61,3.45,7.53c1.95,1.64,4.57,2.46,7.85,2.46,2.78,0,5.42-.7,7.9-2.1.89-.51,1.52-.93,1.88-1.3.35-.35.52-.74.52-1.14l-.04-.55.56-.4Z"/>
  <path class="cls-1" d="M432.53,202.19c-2.75,0-5.03.81-6.85,2.45-2.17,1.92-3.25,4.42-3.25,7.54s1.08,5.63,3.25,7.55c1.82,1.63,4.13,2.44,6.89,2.44s5.05-.81,6.87-2.44c1.08-.97,1.91-2.15,2.49-3.55.51-1.25.76-2.54.76-3.87,0-3.26-1.08-5.81-3.25-7.67-1.84-1.6-4.14-2.42-6.91-2.45M432.5,197.31c5.01,0,8.99,1.35,11.93,4.06,3.09,2.84,4.65,6.5,4.65,10.98,0,2.75-.74,5.33-2.23,7.71-2.91,4.65-7.67,6.99-14.3,6.99-4.97,0-8.92-1.35-11.85-4.06-1.58-1.45-2.77-3.18-3.59-5.21-.72-1.78-1.07-3.65-1.07-5.62,0-2.88.73-5.51,2.21-7.9,2.82-4.56,7.58-6.88,14.26-6.96"/>
  <path class="cls-1" d="M460.5,224.34v-24.34c0-.42-.1-.74-.3-.97-.19-.23-.55-.41-1.05-.55v-.68h8.97v.68c-.5.13-.85.31-1.06.53-.19.24-.29.56-.29.98v24.34c0,.44.1.77.3,1s.56.41,1.05.54v.67h-8.97v-.67c.5-.14.85-.33,1.05-.55.2-.23.3-.56.3-.99"/>
  <path class="cls-1" d="M493.97,202.55v21.78c0,.44.1.77.3,1,.19.22.55.4,1.05.54v.68h-8.96v-.68c.5-.14.85-.32,1.05-.54.2-.23.3-.56.3-1v-21.78h-8.93c-.42,0-.74.1-.97.29-.23.19-.41.54-.55,1.06h-.68v-7.43h.68c.15.52.34.86.56,1.06.22.19.54.29.96.29h24.1c.44,0,.77-.1.99-.29.23-.19.4-.54.55-1.06h.67v7.43h-.67c-.15-.52-.32-.86-.55-1.06-.23-.19-.56-.29-.99-.29h-8.9Z"/>
  <path class="cls-1" d="M529.08,202.19c-2.75,0-5.03.81-6.85,2.45-2.17,1.92-3.25,4.42-3.25,7.54s1.08,5.63,3.25,7.55c1.82,1.63,4.12,2.44,6.89,2.44s5.05-.81,6.87-2.44c1.08-.97,1.91-2.15,2.49-3.55.5-1.25.76-2.54.76-3.87,0-3.26-1.08-5.81-3.25-7.67-1.84-1.6-4.14-2.42-6.91-2.45M529.06,197.31c5.01,0,8.99,1.35,11.93,4.06,3.09,2.84,4.65,6.5,4.65,10.98,0,2.75-.74,5.33-2.23,7.71-2.91,4.65-7.68,6.99-14.3,6.99-4.97,0-8.92-1.35-11.85-4.06-1.58-1.45-2.77-3.18-3.59-5.21-.72-1.78-1.08-3.65-1.08-5.62,0-2.88.74-5.51,2.22-7.9,2.82-4.56,7.58-6.88,14.26-6.96"/>
  <path class="cls-1" d="M582.44,200.25l-3.43,6.77-.59-.34.02-.34c0-.48-.41-.99-1.22-1.54-2.5-1.73-5.43-2.61-8.8-2.61-1.48,0-2.8.19-3.93.55-.83.28-1.5.7-2.01,1.27-.52.56-.77,1.17-.77,1.83,0,1.08.65,1.81,1.96,2.21.68.19,2.12.41,4.34.63l3.3.34c1.97.21,3.55.5,4.77.86,1.21.37,2.29.88,3.23,1.54.96.68,1.71,1.59,2.26,2.71.56,1.13.83,2.32.83,3.6,0,2.01-.65,3.81-1.96,5.38-1.18,1.43-3.01,2.49-5.5,3.17-1.85.52-3.84.78-5.96.78-3.8,0-7.56-.92-11.27-2.74-.78-.36-1.26-.55-1.4-.55-.19,0-.48.16-.86.46l-.62-.31,3.12-7.06.61.3v.27c0,.64.31,1.21.9,1.75.91.81,2.32,1.51,4.23,2.1,1.91.59,3.72.89,5.43.89,1.87,0,3.46-.32,4.78-.95.73-.35,1.31-.81,1.75-1.39.44-.59.65-1.18.65-1.82,0-.95-.52-1.63-1.54-2.03-.71-.28-2.16-.55-4.34-.78l-3.25-.34c-2.17-.22-3.71-.44-4.6-.64-.9-.21-1.8-.54-2.69-.98-1.28-.64-2.29-1.58-3.01-2.84-.66-1.14-.99-2.44-.99-3.92,0-2.43.84-4.44,2.51-6.03,2.18-2.09,5.47-3.13,9.86-3.13,1.83,0,3.55.19,5.13.56,1.59.38,3.57,1.06,5.95,2.06.81.32,1.31.48,1.49.48.29,0,.64-.16,1.03-.48l.59.31Z"/>
  <path class="cls-1" d="M620.44,201.58c-1.06,0-2,.27-2.8.78-1.02.66-1.53,1.61-1.53,2.85,0,1.04.41,1.9,1.23,2.58.82.69,1.85,1.03,3.1,1.03,1.08,0,2.02-.26,2.82-.78,1.02-.68,1.54-1.6,1.54-2.79,0-1.08-.4-1.97-1.2-2.64-.81-.68-1.85-1.02-3.16-1.04M618.95,212.4c-1.57,0-2.93.46-4.08,1.37-1.14.91-1.71,2.05-1.71,3.43s.56,2.63,1.68,3.55c1.12.93,2.54,1.39,4.29,1.39s3.32-.44,4.59-1.35c1.27-.88,1.89-1.93,1.89-3.15,0-.57-.19-1.22-.58-1.9-.39-.7-.88-1.28-1.46-1.74-1.29-1.06-2.83-1.59-4.62-1.6M638.28,206.76v7.98h-.68c-.08-.7-.3-1.05-.63-1.05s-.77.2-1.39.6c-.62.4-1.16.87-1.63,1.39-.83.92-1.4,1.91-1.72,2.97.87.89,1.62,1.51,2.26,1.89.64.37,1.29.56,1.97.56.62,0,1-.34,1.14-1.01h.68v6.62c-.39-.08-1.63-.19-3.71-.31-.8-.06-1.79-.43-2.97-1.11-1.19-.68-2.22-1.49-3.07-2.4-2.85,2.78-6.23,4.17-10.15,4.17-3.05,0-5.6-.73-7.62-2.18-2.29-1.65-3.43-3.82-3.43-6.5,0-3.61,2.13-6.46,6.4-8.55-1.89-1.65-2.84-3.47-2.84-5.44,0-2.28,1.1-4.1,3.28-5.45,1.79-1.08,3.83-1.61,6.13-1.61,2.58,0,4.84.64,6.78,1.93,1.89,1.26,2.84,3.01,2.84,5.25,0,1.25-.27,2.31-.82,3.18-.56.87-1.56,1.81-2.98,2.82,1.46.94,2.59,2.27,3.4,4,1.34-2.33,2.66-4.06,3.95-5.21,1.29-1.14,2.89-1.97,4.82-2.53"/>
  <path class="cls-1" d="M691.76,216.68l4,5.99-.55.38c-.39-.36-.71-.55-.96-.55s-.97.35-2.14,1.02c-2.41,1.39-4.44,2.34-6.09,2.81-1.65.49-3.61.73-5.88.73-4.53,0-8.25-1.08-11.16-3.22-1.71-1.25-3.06-2.8-4.04-4.67-1.14-2.11-1.71-4.45-1.71-7,0-3.48,1.02-6.5,3.05-9.07,3.06-3.87,7.68-5.79,13.88-5.79,2.26,0,4.22.24,5.85.72,1.63.48,3.66,1.42,6.1,2.82,1.17.66,1.88.98,2.14.98s.57-.18.96-.55l.55.39-4,6-.56-.38.03-.56c0-.4-.17-.79-.52-1.14s-.98-.79-1.87-1.29c-2.49-1.39-5.12-2.1-7.9-2.1-3.28,0-5.91.82-7.85,2.46-2.3,1.93-3.46,4.43-3.46,7.53s1.16,5.61,3.46,7.53c1.94,1.64,4.57,2.46,7.85,2.46,2.78,0,5.41-.7,7.9-2.1.89-.51,1.51-.93,1.87-1.3.35-.35.52-.74.52-1.14l-.03-.55.56-.4Z"/>
  <path class="cls-1" d="M729.44,214.01h-16.58v10.36c0,.42.1.75.31.98.2.23.55.41,1.04.53v.67h-8.96v-.67c.5-.14.85-.32,1.05-.54.19-.23.29-.56.29-.97v-24.35c0-.42-.1-.75-.29-.97-.2-.23-.55-.4-1.05-.54v-.68h8.96v.68c-.51.12-.85.3-1.05.53-.2.23-.31.56-.31.98v9.26h16.58v-9.26c0-.42-.1-.75-.3-.98-.19-.23-.55-.41-1.06-.53v-.68h8.97v.68c-.5.14-.85.31-1.05.54-.2.23-.3.56-.3.97v24.35c0,.42.1.75.3.97.2.22.55.4,1.05.54v.67h-8.97v-.67c.5-.12.85-.3,1.05-.53.2-.23.31-.56.31-.98v-10.36Z"/>
  <path class="cls-1" d="M763.66,202.19c-2.75,0-5.03.81-6.85,2.45-2.17,1.92-3.25,4.42-3.25,7.54s1.08,5.63,3.25,7.55c1.82,1.63,4.12,2.44,6.89,2.44s5.05-.81,6.87-2.44c1.08-.97,1.91-2.15,2.49-3.55.5-1.25.76-2.54.76-3.87,0-3.26-1.08-5.81-3.25-7.67-1.84-1.6-4.14-2.42-6.91-2.45M763.64,197.31c5.01,0,8.99,1.35,11.92,4.06,3.1,2.84,4.66,6.5,4.66,10.98,0,2.75-.75,5.33-2.23,7.71-2.91,4.65-7.68,6.99-14.3,6.99-4.97,0-8.92-1.35-11.85-4.06-1.58-1.45-2.77-3.18-3.59-5.21-.72-1.78-1.08-3.65-1.08-5.62,0-2.88.74-5.51,2.22-7.9,2.82-4.56,7.58-6.88,14.26-6.96"/>
  <path class="cls-1" d="M818.13,216.68l4.01,5.99-.56.38c-.39-.36-.71-.55-.96-.55s-.97.35-2.13,1.02c-2.42,1.39-4.45,2.34-6.1,2.81-1.65.49-3.61.73-5.88.73-4.54,0-8.25-1.08-11.16-3.22-1.71-1.25-3.05-2.8-4.04-4.67-1.14-2.11-1.71-4.45-1.71-7,0-3.48,1.02-6.5,3.06-9.07,3.05-3.87,7.68-5.79,13.87-5.79,2.27,0,4.22.24,5.86.72,1.62.48,3.66,1.42,6.1,2.82,1.16.66,1.88.98,2.13.98s.57-.18.96-.55l.56.39-4.01,6-.56-.38.04-.56c0-.4-.18-.79-.52-1.14-.35-.35-.98-.79-1.88-1.29-2.48-1.39-5.12-2.1-7.89-2.1-3.29,0-5.91.82-7.86,2.46-2.3,1.93-3.45,4.43-3.45,7.53s1.15,5.61,3.45,7.53c1.95,1.64,4.57,2.46,7.86,2.46,2.77,0,5.41-.7,7.89-2.1.89-.51,1.52-.93,1.88-1.3.35-.35.52-.74.52-1.14l-.04-.55.56-.4Z"/>
  <path class="cls-1" d="M847.06,202.19c-2.74,0-5.03.81-6.85,2.45-2.17,1.92-3.25,4.42-3.25,7.54s1.08,5.63,3.25,7.55c1.82,1.63,4.12,2.44,6.89,2.44s5.05-.81,6.87-2.44c1.08-.97,1.91-2.15,2.49-3.55.5-1.25.76-2.54.76-3.87,0-3.26-1.08-5.81-3.25-7.67-1.84-1.6-4.14-2.42-6.91-2.45M847.04,197.31c5.01,0,8.99,1.35,11.93,4.06,3.1,2.84,4.65,6.5,4.65,10.98,0,2.75-.74,5.33-2.23,7.71-2.91,4.65-7.68,6.99-14.3,6.99-4.97,0-8.92-1.35-11.85-4.06-1.58-1.45-2.77-3.18-3.59-5.21-.72-1.78-1.08-3.65-1.08-5.62,0-2.88.74-5.51,2.22-7.9,2.83-4.56,7.58-6.88,14.26-6.96"/>
  <path class="cls-1" d="M881.3,221.82h17.66c.44,0,.77-.1.99-.3.22-.19.4-.55.54-1.06h.68v7.44h-.68c-.14-.51-.32-.85-.54-1.06-.23-.19-.56-.3-.99-.3h-25.28v-.67c.5-.14.85-.32,1.05-.55.19-.22.3-.56.3-.99v-24.31c0-.43-.1-.77-.3-.99-.2-.23-.55-.41-1.05-.54v-.68h8.96v.68c-.51.12-.85.3-1.05.53-.2.23-.3.57-.3,1v21.79Z"/>
  <path class="cls-1" d="M930.59,215.29l-4.66-10.24-4.74,10.24h9.4ZM932.4,219.23h-13.06l-1.93,4.04c-.27.56-.39,1.01-.39,1.33,0,.61.47,1.05,1.4,1.28v.68h-9.51v-.68c.57-.1,1-.31,1.29-.59.3-.28.64-.82,1.02-1.64l10.57-22.08c.33-.7.51-1.27.51-1.68,0-.64-.41-1.11-1.22-1.39v-.68h10.19v.68c-.83.23-1.24.65-1.24,1.24,0,.41.14.87.4,1.39l10.94,22.15c.46.94.87,1.58,1.22,1.93.35.35.82.58,1.41.68v.68h-10.58v-.68c.93-.15,1.4-.59,1.4-1.31,0-.29-.15-.73-.43-1.31l-1.97-4.04Z"/>
  <path class="cls-1" d="M963.97,202.55v21.78c0,.44.1.77.3,1,.19.22.54.4,1.05.54v.68h-8.96v-.68c.5-.14.85-.32,1.05-.54.19-.23.3-.56.3-1v-21.78h-8.93c-.42,0-.74.1-.97.29-.23.19-.41.54-.55,1.06h-.68v-7.43h.68c.15.52.35.86.56,1.06.22.19.54.29.96.29h24.1c.44,0,.77-.1.99-.29.23-.19.4-.54.55-1.06h.68v7.43h-.68c-.15-.52-.32-.86-.55-1.06-.23-.19-.56-.29-.99-.29h-8.9Z"/>
  <path class="cls-1" d="M991.13,213.94v7.88h18.49c.42,0,.74-.1.96-.3.23-.2.41-.55.56-1.06h.68v7.44h-.68c-.15-.52-.32-.86-.56-1.06-.22-.19-.54-.29-.96-.29h-26.1v-.67c.5-.15.85-.33,1.05-.56.2-.22.3-.55.3-.98v-24.32c0-.43-.1-.76-.3-.99-.2-.22-.55-.4-1.05-.54v-.68h25.59c.42,0,.75-.1.98-.3.22-.19.4-.56.54-1.05h.68v7.43h-.68c-.14-.49-.32-.85-.54-1.05-.23-.2-.56-.3-.98-.3h-17.98v6.82h11.67c.42,0,.74-.09.97-.29.23-.2.4-.55.54-1.06h.68v7.27h-.68c-.14-.5-.31-.84-.54-1.05-.23-.2-.55-.31-.97-.31h-11.67Z"/>
  <path class="cls-1" d="M1048.61,200.25l-3.43,6.77-.59-.34.02-.34c0-.48-.4-.99-1.22-1.54-2.49-1.73-5.43-2.61-8.8-2.61-1.48,0-2.8.19-3.93.55-.83.28-1.5.7-2.01,1.27-.51.56-.77,1.17-.77,1.83,0,1.08.65,1.81,1.96,2.21.68.19,2.11.41,4.34.63l3.3.34c1.97.21,3.55.5,4.77.86,1.21.37,2.29.88,3.22,1.54.96.68,1.72,1.59,2.27,2.71.55,1.13.82,2.32.82,3.6,0,2.01-.64,3.81-1.95,5.38-1.18,1.43-3.01,2.49-5.5,3.17-1.85.52-3.84.78-5.96.78-3.8,0-7.56-.92-11.27-2.74-.79-.36-1.26-.55-1.41-.55-.19,0-.47.16-.86.46l-.61-.31,3.12-7.06.6.3v.27c0,.64.31,1.21.91,1.75.91.81,2.32,1.51,4.22,2.1,1.92.59,3.72.89,5.44.89,1.86,0,3.46-.32,4.78-.95.73-.35,1.31-.81,1.75-1.39.43-.59.64-1.18.64-1.82,0-.95-.51-1.63-1.53-2.03-.71-.28-2.17-.55-4.34-.78l-3.25-.34c-2.18-.22-3.71-.44-4.6-.64-.9-.21-1.8-.54-2.7-.98-1.27-.64-2.28-1.58-3.01-2.84-.66-1.14-.98-2.44-.98-3.92,0-2.43.84-4.44,2.51-6.03,2.18-2.09,5.47-3.13,9.85-3.13,1.84,0,3.55.19,5.14.56,1.58.38,3.55,1.06,5.93,2.06.81.32,1.31.48,1.5.48.29,0,.64-.16,1.03-.48l.59.31Z"/>
</svg>